<svg width="152" height="82" viewBox="0 0 152 82" fill="none" xmlns="http://www.w3.org/2000/svg">
<path fill-rule="evenodd" clip-rule="evenodd" d="M56.6935 58.6121V56.691H51.4011V73.631C51.4011 73.7651 51.4462 73.8054 51.5949 73.8054H56.9515V65.0156C56.9515 63.8117 57.3288 62.7426 57.9388 62.0644C58.2645 61.7023 58.5886 61.3633 59.0722 61.1655C60.8186 60.4508 63.1418 60.5824 64.1253 62.2701C64.7078 63.27 64.6313 64.4057 64.6313 65.8887V72.9325C64.6309 73.2045 64.5102 73.8054 64.8251 73.8054H70.1814V65.0156C70.1814 62.6908 71.5704 60.7659 74.118 60.7659C76.6208 60.7659 77.5317 61.8555 77.891 63.8245C77.995 64.3933 77.927 71.3692 77.9258 72.9325C77.9258 73.2045 77.8043 73.8054 78.1193 73.8054H83.4763V63.8514C83.4763 62.1244 82.979 60.2652 81.8816 58.9442C79.6841 56.2983 75.4447 55.8569 72.4851 56.9068C69.9544 57.8042 69.5764 58.7221 68.891 59.1361L68.1257 58.3129C67.838 58.0267 66.8754 57.4195 66.4393 57.2144C64.2907 56.2042 61.4511 56.1346 59.2109 57.0412C57.3482 57.795 57.2003 58.3059 56.6935 58.6121ZM101.482 39.2858V37.1317H96.1898V52.9815C96.8885 52.8732 97.5887 52.786 98.263 52.706C99.4204 52.5501 100.58 52.4079 101.74 52.2678V45.9218C101.74 44.762 102.154 43.3167 103.079 42.5895C103.214 42.4837 103.263 42.4679 103.401 42.3557C104.361 41.5777 105.686 41.3815 107.032 41.3815C107.461 41.3815 107.591 41.4397 108 41.4397V36.8407C106.057 36.8407 104.757 37.1193 103.252 37.9133C102.987 38.0526 102.828 38.1454 102.599 38.3143C102.117 38.6697 101.561 39.2376 101.482 39.2858ZM86.5092 47.0279H89.9295C89.9295 48.2787 90.1528 48.9559 89.1077 49.8958C87.734 51.1317 85.5441 51.4004 83.9912 50.7543C82.3991 50.0922 82.2329 47.7988 84.4047 47.2251C84.9436 47.0827 85.8357 47.0279 86.5092 47.0279ZM78.1193 38.878C78.1808 39.1155 78.4476 39.528 78.571 39.7517C78.7342 40.0496 78.917 40.3165 79.0874 40.6247L80.1202 42.3709C80.4746 42.1568 80.7891 41.9654 81.1794 41.7548C83.0142 40.766 87.0449 40.3151 88.6857 41.5721C89.5167 42.209 89.9295 43.1884 89.9295 44.1755C87.6281 44.1755 84.0381 44.0142 81.9549 44.4917C80.4917 44.8268 79.8817 45.1495 78.8474 45.938C78.1113 46.4986 77.4099 47.9084 77.4099 48.8907C77.4099 49.9009 77.5149 50.7825 78.0573 51.6244C78.8131 52.797 80.0296 53.6114 81.4497 54.0365C83.2943 54.5892 86.4336 54.5761 88.1021 53.8203C88.6555 53.569 88.8581 53.4421 89.3218 53.1159C89.672 52.8702 89.9487 52.4657 90.2526 52.1505V54.1879H91.7952C92.3062 53.8972 92.8819 53.7114 93.5165 53.5438C94.125 53.3694 94.7652 53.2287 95.4154 53.1111V44.0011C95.4154 41.9773 94.6425 40.0313 93.0765 38.7173C92.4301 38.1746 91.2899 37.6451 90.4218 37.3865C87.5303 36.5249 84.3945 36.7262 81.4985 37.502C79.5568 38.0219 78.2622 38.8435 78.1193 38.878ZM95.0927 31.718C94.4177 31.718 93.6288 31.5766 93.0471 31.2929C91.955 30.7605 91.7368 29.3524 92.4943 28.5012C93.2657 27.6344 94.8722 27.6431 96.1898 27.6431H99.1586C99.1586 29.0063 99.3649 29.4087 98.5879 30.2719C98.036 30.8847 97.4469 31.2543 96.603 31.5087C96.2788 31.6063 95.4845 31.718 95.0927 31.718ZM87.3484 19.5514L89.3489 22.9861C89.5694 22.933 89.6979 22.7766 89.8928 22.6617C90.0087 22.5938 90.0774 22.5724 90.1845 22.5173C91.6083 21.7821 93.4824 21.2923 95.1665 21.4632C96.0908 21.5573 97.2126 21.554 98.0466 22.3008C98.8214 22.995 99.1586 23.7257 99.1586 24.7907C96.6166 24.7907 93.6009 24.6297 91.2586 25.1162C89.5778 25.4654 88.1774 26.1681 87.3104 27.4927C86.0398 29.4349 86.7948 32.2969 88.1586 33.2571C88.6269 33.5871 88.5222 33.6619 89.4249 34.1525C91.6889 35.383 96.5101 35.4568 98.5622 33.7418C98.7214 33.6087 98.9024 33.4491 99.045 33.304C99.1968 33.1499 99.3187 32.9313 99.4811 32.8241V34.8035H104.709V26.1877C104.709 23.3233 104.338 20.3259 101.486 18.7909C98.2805 17.0656 94.2928 17.179 90.7918 18.1172C89.767 18.3916 89.4914 18.4796 88.5753 18.9119C88.4293 18.9809 88.3073 19.026 88.1437 19.105C87.8543 19.2449 87.6005 19.3994 87.3484 19.5514ZM92.8337 70.6621C91.9511 70.6621 91.0682 70.6225 90.3706 70.1481C89.0652 69.2609 89.4812 67.6226 90.3997 67.1278C90.9259 66.844 91.6415 66.6454 92.4466 66.6454H96.6415C96.6415 68.0163 96.8453 68.3834 96.0988 69.2417C95.3676 70.0826 94.1704 70.6621 92.8337 70.6621ZM84.8959 58.5538L85.605 59.8357C85.6955 59.9922 85.7743 60.0842 85.8649 60.2412C86.1924 60.809 86.5005 61.3655 86.8319 61.9303C87.0819 61.8779 87.1771 61.7795 87.3655 61.6548C88.9655 60.5976 92.2841 60.0629 94.2782 60.6274C95.496 60.9721 96.2295 61.7189 96.5101 62.7215C96.551 62.6411 96.5972 62.5629 96.6488 62.4867L99.3463 57.9733C99.0996 57.8104 98.8363 57.6608 98.5566 57.5254C98.3501 57.4254 98.1751 57.3478 97.9783 57.2612C97.1759 57.3753 96.3656 57.5115 95.5813 57.6874C95.2609 58.5853 94.3157 59.2513 93.227 59.2513C92.4947 59.2513 91.8621 58.9637 91.3147 58.5493C90.8469 58.217 90.5129 57.7519 90.3492 57.2354L90.3412 57.2105L90.3343 57.1857C90.2839 57.0044 90.2575 56.8192 90.2528 56.6338C88.878 56.8407 87.5975 57.1885 86.5945 57.6415C86.1699 57.8332 85.1043 58.2732 84.8959 58.5538ZM96.3017 63.7337C92.374 63.7145 88.0012 63.4025 85.5151 65.6321C84.3744 66.6548 83.9178 68.3138 84.2426 69.7377C84.3856 70.3638 84.5615 70.7513 84.8309 71.2448C84.9868 71.5313 85.0648 71.5954 85.2743 71.8346L86.4061 72.7928C87.2538 73.3158 87.6132 73.503 88.6518 73.7358C90.4853 74.1471 92.6121 74.1123 94.4395 73.5662C95.1968 73.34 95.8969 72.9166 96.4325 72.3946C96.5984 72.2329 96.7972 71.9367 96.9642 71.8268L96.9588 73.4031C96.9569 73.6203 96.9087 73.8054 97.1575 73.8054H102.192V64.0258C102.192 63.5931 102.168 63.1767 102.12 62.7767L100.978 64.6664L100.969 64.6799C100.507 65.4097 99.7033 65.8532 98.7657 65.8532C97.4538 65.8532 96.384 64.8971 96.3017 63.7337ZM66.5028 34.8035H72.0532V25.8968C72.0532 24.6835 72.4236 23.8884 73.1857 23.0186C73.9032 22.2001 75.0269 21.8825 76.1825 21.8194C78.9384 21.6687 80.3783 23.0948 80.3783 25.7802V34.8035H85.9283V26.2461C85.9283 23.3274 85.6832 21.6539 84.2694 19.9417C83.7648 19.3305 82.7164 18.5051 81.8912 18.1868C78.8496 17.016 75.236 17.1897 72.5964 19.0522C72.3743 19.2087 72.2668 19.3642 72.0532 19.4935V11.2853H66.5028V34.8035ZM45.0125 19.0277C45.0125 25.7713 53.7219 25.0506 57.92 26.9438C58.2235 27.0808 58.6199 27.2869 58.8402 27.5114C59.5485 28.2327 59.477 29.1453 58.8618 29.8904C58.6164 30.1875 58.2002 30.3989 57.8127 30.5741C57.3418 30.7864 57.0795 30.845 56.4721 30.9363C53.9919 31.3087 51.2527 30.8574 49.1229 30.0476L47.3227 29.2266C47.1105 29.1114 46.6178 28.7939 46.4321 28.7491L44.4956 32.5913C44.6436 32.6803 44.7559 32.7475 44.9222 32.8471C45.6175 33.2643 45.5506 33.243 46.388 33.6202C47.7515 34.2345 49.5323 34.6486 51.0199 34.9144C54.3954 35.5168 58.2958 35.3337 61.2964 33.8328C64.3691 32.2959 65.7902 29.1159 64.5756 26.0633C64.4303 25.6978 64.2491 25.4693 64.0251 25.163C63.5573 24.5228 62.743 23.8798 62.0138 23.4843C58.9143 21.8014 53.8191 21.5288 52.0731 20.5758C51.2073 20.1034 50.7559 19.771 50.7559 18.7364C50.7559 18.2409 51.0506 17.7131 51.3193 17.4403C51.9435 16.8073 53.2625 16.5316 54.1933 16.4233C55.825 16.2333 57.966 16.5499 59.412 16.9828C60.4864 17.3049 62.0084 18.0472 62.2436 18.0965C62.3162 17.8152 62.5344 17.4407 62.6674 17.1401L63.9857 14.196C62.4797 13.4771 62.3498 13.2682 60.4505 12.7862C57.6262 12.0694 53.936 12.0111 51.0646 12.6697C49.9355 12.9293 48.9307 13.4124 48.0707 13.9277C47.1858 14.4587 46.51 15.1221 45.9821 15.9443C45.4171 16.8246 45.0125 17.9568 45.0125 19.0277ZM52.3693 54.1879H57.7258L62.179 43.7097C62.2022 43.961 64.1477 48.7349 64.2357 48.9563L66.3093 54.1879H71.6656L74.2197 47.8184C74.5305 47.094 74.7889 46.3762 75.077 45.6808L78.2858 37.6895C78.3731 37.4858 78.4163 37.302 78.5064 37.1317H73.6019L72.4856 39.9671C72.2761 40.4461 72.1277 40.9201 71.924 41.3815C71.3449 42.6912 70.7536 44.338 70.1909 45.6974L69.0435 48.5049C69.0389 48.5125 69.029 48.5298 69.0198 48.5418L64.5663 37.1317H59.8557C59.7861 37.4007 59.6872 37.5778 59.5893 37.8229C58.7587 39.9071 57.747 42.2524 56.9924 44.2707L55.2089 48.5997L51.3823 38.6042C51.179 38.1405 51.0376 37.5402 50.8205 37.1317H45.6577C45.6843 37.4202 45.9359 37.9126 46.036 38.1874L46.6652 39.7737C46.7512 39.9954 46.8116 40.1051 46.8922 40.3257C47.0229 40.6843 47.1594 41.0136 47.3104 41.4039C47.9545 43.0667 48.8026 45.0312 49.4081 46.6718L51.9634 53.0991C52.055 53.3087 52.352 54.0007 52.3693 54.1879Z" fill="#F37135"/>
<path d="M131.259 33.1903L118.837 53.7782L114.432 54.0434C111.749 54.2423 108.588 54.4743 105.133 54.8391L117.078 35.0469C117.152 34.9474 117.189 34.8479 117.189 34.7485C117.189 34.417 116.895 34.1186 116.527 34.0854H116.38C116.16 34.1186 115.939 34.2512 115.829 34.4501L103.406 55.0049C101.789 55.2038 100.061 55.4026 98.3398 55.6347C96.3795 55.8669 95.0932 56.0989 94.1743 56.3641C93.2921 56.5962 92.8144 56.7951 92.4468 57.2261C92.2998 57.4581 92.2263 57.7565 92.2998 58.0217C92.3733 58.2538 92.5204 58.4195 92.6673 58.519C92.9247 58.7179 93.1819 58.8505 93.4392 58.8505C93.8067 58.8505 94.1375 58.5522 94.1375 58.2206C94.1375 58.0881 94.1007 57.9222 93.9904 57.8229C94.1375 57.7565 94.1375 57.7234 94.6153 57.5907C95.3872 57.3918 96.6368 57.1266 98.548 56.8945L102.554 56.3973L97.9968 64.0224C97.9232 64.1218 97.8865 64.2213 97.8865 64.3208C97.8865 64.6854 98.2172 64.9838 98.5848 64.9838C98.8788 64.9838 99.0994 64.8512 99.2464 64.6192L104.318 56.2315C108.104 55.8005 111.633 55.5353 114.536 55.3363C115.823 55.2369 116.999 55.1706 118.028 55.1374L113.397 62.7957C113.36 62.862 113.323 62.9946 113.323 63.0941C113.323 63.4588 113.654 63.7572 114.022 63.7572C114.279 63.7572 114.536 63.5914 114.646 63.3925L119.682 55.0379C121.299 55.0049 122.365 54.9717 122.769 55.0049H122.843C123.247 55.0049 123.578 54.7065 123.578 54.375C123.578 54.0102 123.247 53.745 122.88 53.7119C122.402 53.7119 121.593 53.7119 120.49 53.745L132.509 33.8202C132.583 33.7207 132.583 33.6212 132.583 33.4887C132.583 33.1903 132.325 32.9251 131.995 32.8588H131.774C131.554 32.8919 131.37 33.0246 131.259 33.1903ZM128.723 52.2919C128.503 52.2919 128.319 52.3581 128.172 52.4908C127.217 53.4467 126.555 54.2755 126.187 54.9717C126.04 55.3032 125.893 55.6347 125.893 55.9331C125.893 56.2646 126.004 56.6957 126.334 56.9277C126.739 57.1929 127.18 57.2261 127.658 57.1598C128.099 57.0934 128.613 56.9277 129.165 56.6625C129.9 56.3088 130.782 55.6458 131.774 54.8445C131.921 55.281 132.252 55.6789 132.766 55.8446C133.465 56.0768 134.237 55.9773 135.266 55.6789C136.258 55.3805 137.545 54.8115 139.162 53.9495C139.382 53.8168 139.492 53.6179 139.492 53.3859C139.492 53.0212 139.198 52.756 138.794 52.756C138.647 52.756 138.537 52.7891 138.427 52.8555C136.846 53.6843 135.67 54.2147 134.825 54.4468C133.943 54.712 133.428 54.6788 133.244 54.6456C133.134 54.6125 133.024 54.5131 133.024 54.3804C132.987 54.1815 133.06 53.9163 133.244 53.5516C133.281 53.4853 133.355 53.2864 133.355 53.1869C133.355 52.8555 133.06 52.5571 132.656 52.5571C132.472 52.5515 132.252 52.6178 132.142 52.7504C130.598 54.2423 129.348 55.1043 128.466 55.5353C128.025 55.7674 127.658 55.8668 127.437 55.8999H127.364C127.364 55.8005 127.4 55.701 127.511 55.5021C127.768 55.0048 128.319 54.2423 129.238 53.3472C129.348 53.2478 129.422 53.0819 129.422 52.9162C129.422 52.5903 129.128 52.2919 128.723 52.2919ZM143.535 45.0921H143.425C143.205 45.1253 142.984 45.2579 142.874 45.4237L135.744 57.2593C135.707 57.3255 135.67 57.4581 135.67 57.5575C135.67 57.8891 136.001 58.1875 136.368 58.1875C136.552 58.1875 136.736 58.1211 136.883 58.0217C136.883 58.0217 138.647 56.4303 140.669 54.9385C141.661 54.2091 142.727 53.4798 143.609 52.9824C144.05 52.7504 144.454 52.5183 144.748 52.452C145.006 52.3858 145.153 52.3858 145.226 52.419C145.189 52.5847 145.153 52.7172 144.859 53.1483C144.565 53.5792 144.197 53.9108 143.646 54.3418C142.837 54.607 142.065 54.8391 141.514 55.1043C141.22 55.2369 140.926 55.3695 140.705 55.5353C140.485 55.701 140.228 55.8669 140.154 56.2646C140.081 56.4635 140.154 56.7619 140.375 56.9609C140.558 57.1266 140.779 57.1598 140.963 57.1598C141.257 57.1929 141.514 57.1266 141.808 57.0603C142.359 56.8614 143.021 56.563 143.756 56.0989C144.05 55.8999 144.344 55.6347 144.638 55.3695C146.476 54.8391 148.755 54.2755 150.739 53.9439C151.07 53.9108 151.327 53.6455 151.327 53.314C151.327 52.9825 151.033 52.6842 150.629 52.6842H150.482C149.085 52.9162 147.615 53.314 146.182 53.7119C146.439 53.2808 146.66 52.8499 146.66 52.3858C146.66 52.1536 146.623 51.8884 146.439 51.6564C146.292 51.4243 145.998 51.2586 145.741 51.1591C145.226 51.0264 144.785 51.1259 144.307 51.2586C143.866 51.3912 143.388 51.6232 142.874 51.8884C141.882 52.419 140.779 53.1814 139.75 53.9439C139.345 54.2423 139.382 54.2755 139.015 54.5738L144.124 46.0536C144.197 45.9541 144.234 45.8547 144.234 45.722C144.234 45.3905 143.94 45.0921 143.535 45.0921Z" fill="#75BF24"/>
<path fill-rule="evenodd" clip-rule="evenodd" d="M21.4834 74.6356L21.2612 77.322C22.1007 77.6313 22.6922 78.2362 22.6922 79.2432C22.6922 80.2505 21.6627 81.3176 20.3924 81.3176C19.1225 81.3176 18.0925 80.2505 18.0925 79.2432C18.0925 78.2362 18.684 77.6313 19.5235 77.322L19.7463 74.6356C17.3262 74.5632 15.5856 74.1904 13.9441 73.6245C12.2691 73.0476 11.1056 72.237 10.7062 71.2793H5.36486C5.02196 72.0365 4.19761 72.5701 3.23441 72.5701C1.96466 72.5701 0.93457 71.6415 0.93457 70.4956C0.93457 69.3502 1.96466 68.4212 3.23441 68.4212C4.19761 68.4212 5.02196 68.9552 5.36486 69.7125H10.7386C11.1659 68.7871 12.3126 68.0028 13.9441 67.4407C15.2292 66.9975 16.8484 66.6729 18.6524 66.5184V68.1297C17.0805 68.2746 15.6824 68.558 14.5766 68.9388C13.1901 69.4163 12.3331 69.9853 12.3331 70.5326C12.3331 71.0799 13.1901 71.649 14.5766 72.1264C16.2212 72.6927 18.5121 73.0434 21.0601 73.0434C23.608 73.0434 25.8995 72.6927 27.5441 72.1264C28.9306 71.649 29.7876 71.0799 29.7876 70.5326C29.7876 69.9853 28.93 69.4163 27.5441 68.9388C26.4384 68.558 25.0402 68.2746 23.4684 68.1297V66.5184C25.2723 66.6729 26.8916 66.9975 28.1767 67.4407C29.8082 68.0028 30.9549 68.7871 31.3822 69.7125H38.908C39.2509 68.9552 40.0758 68.4212 41.0384 68.4212C42.3083 68.4212 43.3383 69.3502 43.3383 70.4956C43.3383 71.6415 42.3083 72.5701 41.0384 72.5701C40.0758 72.5701 39.2509 72.0365 38.908 71.2793H31.4146C31.0152 72.237 29.8515 73.0476 28.1767 73.6245C26.535 74.1904 23.9033 74.5632 21.4834 74.6356Z" fill="#F37135"/>
<path fill-rule="evenodd" clip-rule="evenodd" d="M20.4356 0H21.6848C22.2459 0 22.7037 0.412956 22.7037 0.919049V13.1171C22.1586 13.1302 21.6156 13.135 21.0799 13.1334C20.5306 13.1324 19.9748 13.1249 19.4166 13.1081V0.919049C19.4166 0.412956 19.8746 0 20.4356 0ZM3.97822 13.8489C5.29093 13.3772 6.59473 12.9568 7.88979 12.5866C7.49058 12.9077 7.26366 13.2619 7.25476 13.6522C7.22086 15.1799 13.3853 16.4184 21.0236 16.4184C28.6618 16.4184 34.8815 15.1799 34.9154 13.6522C34.9354 12.7559 33.8138 12.0415 32.0142 11.5084C34.09 11.9393 36.1431 12.5062 38.1739 13.2053C39.1699 13.548 39.7152 14.3909 39.5088 15.2693L38.885 17.9218C38.7578 18.4649 38.338 18.8709 37.747 19.0248C31.324 20.6938 24.4954 20.6456 17.5723 20.1988C24.479 21.589 31.3575 22.7349 37.9939 21.7139L36.2416 29.1699C36.0962 29.7881 35.5592 30.2355 34.8645 30.3175C30.1603 30.8723 25.2974 30.7559 20.3875 30.4391C25.4667 31.4612 30.5315 32.3512 35.4952 32.3445L33.58 40.4918C33.4223 41.1623 32.7955 41.6328 32.0364 41.6514C29.0383 41.7239 25.9944 41.6043 22.9325 41.4065C26.2969 42.084 29.6545 42.7027 32.9809 43.0416L31.1083 51.0081C30.9489 51.6855 30.3087 52.1593 29.5412 52.1678C26.8445 52.1984 24.1131 52.0836 21.3671 51.9065C24.435 52.5241 27.497 53.0932 30.5356 53.4458L28.3112 62.9062C28.098 63.8168 27.1388 64.4672 26.012 64.4672H22.2793V70.3333C22.2793 70.6707 21.9739 70.9461 21.5998 70.9461H20.5206C20.1466 70.9461 19.8411 70.6707 19.8411 70.3333V64.4672H16.9029C15.8182 64.4672 14.9171 63.8696 14.6943 63.0029L13.754 59.341C15.4489 59.4002 17.1625 59.4208 18.8821 59.4277C17.4428 59.2289 16.0135 59.0142 14.6012 58.772C13.9551 58.6615 13.4715 58.2421 13.3232 57.6646L10.7114 47.4963C13.7862 47.7638 16.9597 47.823 20.1547 47.8363C17.1356 47.4196 14.1603 46.9315 11.2941 46.2683C10.6921 46.1288 10.2565 45.7269 10.1163 45.1811L7.83348 36.2925C11.3247 36.6737 14.9611 36.7498 18.6265 36.7646C15.0966 36.2776 11.6277 35.6934 8.32122 34.8446C7.7379 34.6949 7.32166 34.2999 7.18449 33.7674L4.91458 24.9295C10.3098 26.4118 16.3165 26.6038 22.4024 26.6285C15.8933 25.7306 9.58928 24.5006 4.13426 21.8936L2.61873 15.9932C2.39074 15.1043 2.95289 14.2175 3.97822 13.8489ZM12.1183 12.2218C12.1183 11.8976 12.3693 11.6983 12.8225 11.5386C11.7737 11.8621 11.1616 12.2514 11.1616 12.6696C11.1616 13.7966 15.5931 14.7098 21.0599 14.7098C26.5274 14.7098 30.9589 13.7966 30.9589 12.6696C30.9589 12.2514 30.3467 11.8621 29.2975 11.5386C29.7511 11.6983 30.0015 11.8976 30.0015 12.2218C30.0015 14.3015 12.1183 14.208 12.1183 12.2218Z" fill="#75BF24"/>
</svg>
