<svg width="1381" height="485" viewBox="0 0 1381 485" fill="none" xmlns="http://www.w3.org/2000/svg">
<path opacity="0.15" d="M657.928 318.117C544.389 250.949 387.92 329.439 263.915 276.284C199.395 248.627 186.31 223.67 140.011 182.413C110.314 155.951 107.484 151.344 79.2983 132.417C51.1126 113.49 0 91.6033 0 91.6033V22.2207H1334.44V484.432H1016.01C1016.01 484.432 845.932 486.613 764.485 429.334C714.948 394.495 716.049 352.501 657.928 318.117Z" fill="white"/>
<path opacity="0.15" d="M703.771 295.897C590.233 228.729 433.763 324.564 309.758 271.409C245.238 243.752 211.461 145.738 192.669 116.771C182.372 100.9 166.649 86.6149 141.112 75.5046C115.574 64.3943 45.8433 69.3826 45.8433 69.3826V0H1380.28V433.188H1081.68C1081.68 433.188 872.28 438.743 804.133 398.95C744.659 364.222 761.892 330.28 703.771 295.897Z" fill="white"/>
</svg>
